<?xml version="1.0" standalone="no"?>
<!DOCTYPE svg PUBLIC "-//W3C//DTD SVG 20010904//EN"
 "http://www.w3.org/TR/2001/REC-SVG-20010904/DTD/svg10.dtd">
<svg version="1.0" xmlns="http://www.w3.org/2000/svg"
 width="16.000000pt" height="16.000000pt" viewBox="0 0 16.000000 16.000000"
 preserveAspectRatio="xMidYMid meet">
<metadata>
Created by potrace 1.11, written by Peter Selinger 2001-2013
</metadata>
<g transform="translate(0.000000,16.000000) scale(0.003125,-0.003125)"
fill="#000000" stroke="none">
<path d="M0 2560 l0 -2560 2560 0 2560 0 0 2560 0 2560 -2560 0 -2560 0 0
-2560z m2750 1265 c278 -42 520 -164 716 -359 498 -499 498 -1313 0 -1812
-499 -498 -1313 -498 -1812 0 -498 499 -498 1313 0 1812 287 286 697 421 1096
359z"/>
<path d="M2435 3186 c-234 -54 -403 -206 -481 -431 -24 -69 -28 -95 -28 -195
0 -100 4 -126 28 -195 36 -104 83 -181 157 -254 73 -74 150 -121 254 -157 69
-24 95 -28 195 -28 100 0 126 4 195 28 104 36 181 83 254 157 74 73 121 150
157 254 24 69 28 95 28 195 0 100 -4 126 -28 195 -90 260 -313 429 -581 441
-55 2 -113 -2 -150 -10z"/>
</g>
</svg>
